<svg xmlns="http://www.w3.org/2000/svg" xmlns:xlink="http://www.w3.org/1999/xlink" viewBox="0 0 358.18 119.58"><defs><style>.cls-1{fill:#212121;}.cls-2{fill:url(#linear-gradient);}.cls-3{fill:url(#linear-gradient-2);}.cls-4{fill:url(#linear-gradient-3);}.cls-5{fill:url(#linear-gradient-4);}.cls-6{fill:url(#linear-gradient-5);}.cls-7{fill:url(#linear-gradient-6);}.cls-8{fill:url(#linear-gradient-7);}</style><linearGradient id="linear-gradient" x1="309.07" y1="11.37" x2="28.02" y2="59.97" gradientUnits="userSpaceOnUse"><stop offset="0" stop-color="#d4a56f"/><stop offset="1" stop-color="#925d31"/></linearGradient><linearGradient id="linear-gradient-2" x1="309.76" y1="15.35" x2="28.71" y2="63.95" xlink:href="#linear-gradient"/><linearGradient id="linear-gradient-3" x1="311.39" y1="24.78" x2="30.34" y2="73.38" xlink:href="#linear-gradient"/><linearGradient id="linear-gradient-4" x1="311.82" y1="27.26" x2="30.77" y2="75.86" xlink:href="#linear-gradient"/><linearGradient id="linear-gradient-5" x1="313.84" y1="38.96" x2="32.79" y2="87.55" xlink:href="#linear-gradient"/><linearGradient id="linear-gradient-6" x1="311.84" y1="27.4" x2="30.79" y2="75.99" xlink:href="#linear-gradient"/><linearGradient id="linear-gradient-7" x1="310.77" y1="21.2" x2="29.72" y2="69.8" xlink:href="#linear-gradient"/></defs><g id="Layer_2" data-name="Layer 2"><g id="Layer_1-2" data-name="Layer 1"><path class="cls-1" d="M3,99.18c0-4.28,0-5.07,0-6S2.58,92,1.66,91.69a5.19,5.19,0,0,0-1.16-.1c-.3,0-.5-.1-.5-.3S.23,91,.66,91c1.53,0,3.38.06,4.21.06s3-.06,4.74-.06c3.64,0,8.54,0,11.72,3.21a9.86,9.86,0,0,1,2.75,7.16,10.92,10.92,0,0,1-3.18,7.85c-1.32,1.32-4.4,3.31-9.77,3.31-1.06,0-2.32-.1-3.48-.17s-2.22-.16-2.95-.16c-.33,0-1,0-1.65,0s-1.43.07-2,.07c-.37,0-.57-.1-.57-.3s.1-.3.47-.3a4,4,0,0,0,1-.1c.6-.13.77-.66.87-1.49.13-1.19.13-3.41.13-6Zm3.91,3.11c0,3,0,5.13.06,5.7a5.26,5.26,0,0,0,.33,2c.37.53,1.53,1.13,3.81,1.13,2.65,0,4.61-.46,6.36-1.92s2.49-4.07,2.49-7a9.15,9.15,0,0,0-2.72-7A11.73,11.73,0,0,0,9,92.48a6.34,6.34,0,0,0-1.79.2c-.26.1-.36.23-.36.57,0,1,0,3.28,0,5.49Z"/><path class="cls-1" d="M30.15,99.18c0-4.28,0-5.07,0-6s-.33-1.26-1.26-1.52a5,5,0,0,0-1.15-.1c-.3,0-.5-.1-.5-.3s.23-.26.66-.26c1.52,0,3.38.06,4,.06,1,0,3.64-.06,4.53-.06a10.2,10.2,0,0,1,5.54,1.19A4.94,4.94,0,0,1,44,96.09c0,2.09-1.19,4-4,6.23,2.58,3.18,4.64,5.73,6.39,7.49a5.41,5.41,0,0,0,3.12,1.85,2.52,2.52,0,0,0,.69.07.35.35,0,0,1,.37.3c0,.23-.2.3-.57.3H47.14a6.28,6.28,0,0,1-3.18-.57c-1.26-.63-2.35-2-4-4.14-1.16-1.52-2.39-3.41-2.75-3.84a.67.67,0,0,0-.53-.2l-2.62-.06a.21.21,0,0,0-.23.23v.39c0,2.62,0,4.81.16,6,.1.83.23,1.36,1.13,1.49a10.4,10.4,0,0,0,1.42.1.35.35,0,0,1,.37.3c0,.2-.23.3-.6.3-1.69,0-4.11-.1-4.54-.1s-2.42.1-3.58.1c-.36,0-.56-.1-.56-.3s.1-.3.47-.3a4,4,0,0,0,1-.1c.6-.13.76-.66.86-1.49.14-1.19.14-3.41.14-6Zm3.71,2.18c0,.3.06.4.26.5a8,8,0,0,0,2.22.26,2.93,2.93,0,0,0,2-.46,4.75,4.75,0,0,0,1.89-4.17c0-4-2.71-5-4.44-5a11.37,11.37,0,0,0-1.72.1c-.2.07-.26.17-.26.4Z"/><path class="cls-1" d="M52.21,110.21a2,2,0,0,1,2-2,1.9,1.9,0,0,1,2,1.92,2,2,0,0,1-2,2.12A1.94,1.94,0,0,1,52.21,110.21Z"/><path class="cls-1" d="M68.87,91.13c.07-.47.33-.73.57-.73s.49.13.89.89L78.15,107,86,91.09c.23-.46.49-.69.76-.69s.56.29.66.89L90,108.68c.27,1.76.53,2.52,1.42,2.79a5.82,5.82,0,0,0,1.66.26c.27,0,.46.1.46.27s-.33.33-.76.33c-.73,0-4.87-.14-6-.2-.69,0-.86-.17-.86-.33s.14-.23.33-.3.24-.4.14-1.19l-1.63-12.2h-.1L78.41,110.7c-.66,1.33-.83,1.59-1.16,1.59s-.69-.56-1.16-1.42c-.69-1.29-3-5.6-3.34-6.39-.23-.53-2-4.08-2.92-6h-.1l-1.39,11a10.44,10.44,0,0,0-.1,1.33c0,.53.4.73.9.83a4.89,4.89,0,0,0,1,.13c.27,0,.47.13.47.27s-.27.33-.7.33c-1.22,0-2.55-.1-3.08-.1s-1.95.1-2.88.1c-.3,0-.53-.07-.53-.33s.17-.27.46-.27a5.1,5.1,0,0,0,.9-.07c.79-.09,1.06-1.22,1.19-2.15Z"/><path class="cls-1" d="M96.67,99.18c0-4.28,0-5.07,0-6S96.3,92,95.38,91.69a5.08,5.08,0,0,0-1.13-.1c-.33,0-.5-.1-.5-.3s.2-.26.63-.26c1.56,0,3.51.06,4.37.06s2.69-.06,3.75-.06c.43,0,.63.06.63.26s-.17.3-.47.3a3.85,3.85,0,0,0-.86.1c-.76.13-1,.53-1.06,1.52s-.07,1.69-.07,6v3.94c0,4.11.8,5.7,2.22,6.82a6.18,6.18,0,0,0,7.59-.36c1.62-1.53,1.69-4,1.69-6.86V99.18c0-4.28,0-5.07-.07-6s-.29-1.26-1.22-1.52a4.77,4.77,0,0,0-1.06-.1c-.33,0-.5-.1-.5-.3s.2-.26.6-.26c1.49,0,3.44.06,3.48.06.33,0,2.28-.06,3.41-.06.4,0,.59.06.59.26s-.16.3-.49.3a3.79,3.79,0,0,0-.86.1c-.8.13-1,.53-1.06,1.52s-.07,1.69-.07,6v3c0,3.15-.33,6.46-2.78,8.48a9.12,9.12,0,0,1-6.16,2c-1.53,0-4.54-.07-6.66-1.92-1.49-1.29-2.65-3.38-2.65-7.45Z"/><path class="cls-1" d="M137.55,100.2c.06,0,.16,0,.16-.2v-.59c0-4.28,0-5.3-.06-6.2s-.34-1.26-1.26-1.52a5.08,5.08,0,0,0-1.13-.1c-.33,0-.5-.1-.5-.3s.2-.26.63-.26c1.56,0,3.61.06,4.38.06s2.61-.06,3.74-.06c.43,0,.63.06.63.26s-.2.3-.53.3a4.53,4.53,0,0,0-.86.1c-.76.13-1,.53-1.06,1.52s-.07,1.69-.07,6v5c0,2.59,0,4.81.13,6,.1.8.27,1.33,1.16,1.46a10.07,10.07,0,0,0,1.49.1c.3,0,.47.17.47.3s-.24.3-.6.3c-1.89,0-3.81-.1-4.6-.1s-2.72.1-3.85.1c-.39,0-.63-.1-.63-.3s.14-.3.47-.3a4.26,4.26,0,0,0,1.06-.1c.59-.13.76-.66.86-1.49.13-1.19.13-3.35.13-5.93v-2.15a.18.18,0,0,0-.16-.17h-11c-.1,0-.2,0-.2.17v2.15c0,2.58,0,4.74.16,6,.1.8.27,1.33,1.13,1.46a10.36,10.36,0,0,0,1.49.1c.33,0,.47.17.47.3s-.24.3-.6.3c-1.89,0-3.91-.1-4.74-.1-.66,0-2.58.1-3.74.1-.37,0-.56-.1-.56-.3s.09-.3.46-.3a4.16,4.16,0,0,0,1-.1c.59-.13.76-.66.86-1.49.13-1.19.13-3.41.13-6v-5c0-4.28,0-5.07,0-6s-.33-1.26-1.26-1.52a5.13,5.13,0,0,0-1.16-.1c-.3,0-.5-.1-.5-.3s.23-.26.63-.26c1.56,0,3.48.06,4.27.06s2.72-.06,3.88-.06c.4,0,.6.06.6.26s-.17.3-.53.3a4,4,0,0,0-.83.1c-.8.13-1,.53-1.09,1.52s-.07,1.92-.07,6.2V100c0,.17.1.2.2.2Z"/><path class="cls-1" d="M152.42,105.24c-.17,0-.2,0-.26.2l-1.56,3.77a5.06,5.06,0,0,0-.43,1.73c0,.49.26.79,1.16.79h.43c.36,0,.43.13.43.3s-.17.3-.47.3c-1,0-2.31-.1-3.24-.1-.3,0-1.86.1-3.38.1-.36,0-.53-.07-.53-.3a.29.29,0,0,1,.33-.3l.86,0c1.33-.2,1.82-1.06,2.42-2.49l7.62-17.72c.33-.8.56-1.13.86-1.13s.56.27.86.9c.7,1.56,5.57,13.08,7.42,17.36,1.13,2.55,2,2.91,2.49,3a6.57,6.57,0,0,0,1.09.1c.27,0,.4.1.4.3s-.17.3-1.26.3-3.15,0-5.6-.07c-.53,0-.86,0-.86-.23s.07-.27.36-.3a.44.44,0,0,0,.27-.63l-2.25-5.66a.28.28,0,0,0-.3-.2Zm6.23-1.56c.13,0,.16-.07.13-.16L156,96.36c0-.1-.07-.27-.13-.27s-.13.17-.17.27l-2.81,7.12c-.07.13,0,.2.1.2Z"/><path class="cls-1" d="M173.85,91.13c.07-.47.34-.73.57-.73s.5.13.89.89l7.82,15.7L191,91.09c.23-.46.5-.69.76-.69s.56.29.66.89L195,108.68c.27,1.76.53,2.52,1.43,2.79a5.77,5.77,0,0,0,1.65.26c.27,0,.47.1.47.27s-.33.33-.76.33c-.73,0-4.87-.14-6-.2-.7,0-.86-.17-.86-.33s.13-.23.33-.3.23-.4.13-1.19l-1.62-12.2h-.1L183.4,110.7c-.67,1.33-.83,1.59-1.16,1.59s-.7-.56-1.16-1.42c-.7-1.29-3-5.6-3.35-6.39-.23-.53-1.95-4.08-2.91-6h-.1l-1.4,11a10.37,10.37,0,0,0-.09,1.33c0,.53.39.73.89.83a5,5,0,0,0,1,.13c.26,0,.46.13.46.27s-.26.33-.69.33c-1.23,0-2.56-.1-3.09-.1s-2,.1-2.88.1c-.3,0-.53-.07-.53-.33s.17-.27.47-.27a4.94,4.94,0,0,0,.89-.07c.8-.09,1.06-1.22,1.19-2.15Z"/><path class="cls-1" d="M203.34,99.18c0-4.28,0-5.07,0-6S203,92,202.05,91.69a5.19,5.19,0,0,0-1.16-.1c-.3,0-.5-.1-.5-.3s.23-.26.66-.26c1.53,0,3.38.06,4.21.06s7.39,0,8,0,1-.13,1.23-.16a2.6,2.6,0,0,1,.46-.14c.16,0,.2.14.2.27a11.68,11.68,0,0,0-.23,1.82c0,.3-.1,1.52-.17,1.86,0,.13-.1.46-.33.46s-.23-.13-.23-.36a2.76,2.76,0,0,0-.2-1c-.23-.5-.47-.9-1.92-1-.5-.06-4-.13-4.57-.13-.14,0-.2.1-.2.26v7c0,.17,0,.3.2.3.66,0,4.43,0,5.1-.07s1.12-.13,1.39-.43.33-.36.46-.36.23.13.23.3-.06.63-.23,2c-.06.56-.13,1.69-.13,1.89s0,.63-.3.63-.26-.1-.26-.23c0-.3,0-.67-.1-1-.17-.56-.53-1-1.63-1.09-.53-.07-3.84-.14-4.57-.14-.13,0-.16.14-.16.3v2.25c0,1,0,3.35,0,4.18.06,1.92,1,2.35,3.94,2.35a7.68,7.68,0,0,0,2.75-.37c.73-.33,1.06-.92,1.26-2.08.06-.3.13-.43.33-.43s.26.36.26.66a19.58,19.58,0,0,1-.39,3.11c-.2.73-.47.73-1.56.73-2.19,0-3.94,0-5.37-.1s-2.51-.06-3.38-.06c-.33,0-1,0-1.65,0s-1.43.07-2,.07c-.37,0-.57-.1-.57-.3s.1-.3.47-.3a4,4,0,0,0,1-.1c.6-.13.77-.66.87-1.49.13-1.19.13-3.41.13-6Z"/><path class="cls-1" d="M221.76,99.18c0-4.28,0-5.07,0-6s-.33-1.26-1.25-1.52a5.19,5.19,0,0,0-1.16-.1c-.3,0-.5-.1-.5-.3s.23-.26.66-.26c1.53,0,3.38.06,4.21.06s3-.06,4.74-.06c3.64,0,8.54,0,11.72,3.21a9.86,9.86,0,0,1,2.75,7.16,10.92,10.92,0,0,1-3.18,7.85c-1.32,1.32-4.4,3.31-9.77,3.31-1.06,0-2.32-.1-3.48-.17s-2.22-.16-3-.16c-.33,0-1,0-1.65,0s-1.43.07-2,.07c-.37,0-.57-.1-.57-.3s.1-.3.47-.3a4,4,0,0,0,1-.1c.6-.13.77-.66.86-1.49.14-1.19.14-3.41.14-6Zm3.91,3.11c0,3,0,5.13.06,5.7a5.26,5.26,0,0,0,.33,2c.37.53,1.53,1.13,3.81,1.13,2.65,0,4.61-.46,6.36-1.92s2.49-4.07,2.49-7a9.15,9.15,0,0,0-2.72-7,11.73,11.73,0,0,0-8.15-2.69,6.34,6.34,0,0,0-1.79.2c-.26.1-.36.23-.36.57,0,1,0,3.28,0,5.49Z"/><path class="cls-1" d="M259.22,99.18c0-4.28,0-5.07,0-6s-.33-1.26-1.26-1.52a5.13,5.13,0,0,0-1.16-.1c-.3,0-.49-.1-.49-.3s.23-.26.66-.26c1.52,0,3.38.06,3.94.06,1.46,0,3.38-.06,4.37-.06,5.27,0,6.2,2.71,6.2,4.2,0,2.19-1.62,3.88-3.28,4.94,2.38.76,5.37,2.78,5.37,6.09,0,3-2.39,6.13-7.76,6.13-.33,0-1.32,0-2.32-.1s-2-.06-2.48-.06-1,0-1.66,0-1.42.07-2,.07c-.36,0-.56-.1-.56-.3s.1-.3.46-.3a4.11,4.11,0,0,0,1-.1c.6-.13.76-.66.86-1.49.13-1.19.13-3.41.13-6Zm3.78.46c0,.23.1.26.2.3a6.64,6.64,0,0,0,1.36.1,3.74,3.74,0,0,0,2.28-.5,3.67,3.67,0,0,0,1.33-3c0-1.89-1.13-4.24-3.65-4.24a8.05,8.05,0,0,0-1.25.06c-.2,0-.27.17-.27.47Zm0,8.28c0,1.86.1,2.42,1,2.78a5.33,5.33,0,0,0,2.09.33c1.55,0,3.57-.86,3.57-4a6.16,6.16,0,0,0-2.75-5,4.13,4.13,0,0,0-2.52-.73h-1.25c-.1,0-.17,0-.17.2Z"/><path class="cls-1" d="M279.1,99.18c0-4.28,0-5.07,0-6s-.33-1.26-1.26-1.52a5.13,5.13,0,0,0-1.16-.1c-.3,0-.5-.1-.5-.3s.23-.26.67-.26c1.52,0,3.37.06,4,.06,1,0,3.64-.06,4.54-.06a10.19,10.19,0,0,1,5.53,1.19,4.91,4.91,0,0,1,2.06,3.87c0,2.09-1.2,4-4.05,6.23,2.59,3.18,4.64,5.73,6.4,7.49a5.4,5.4,0,0,0,3.11,1.85,2.59,2.59,0,0,0,.7.07.34.34,0,0,1,.36.3c0,.23-.2.3-.56.3H296.1a6.26,6.26,0,0,1-3.18-.57c-1.26-.63-2.36-2-4-4.14-1.16-1.52-2.39-3.41-2.75-3.84a.66.66,0,0,0-.53-.2l-2.62-.06a.21.21,0,0,0-.23.23v.39c0,2.62,0,4.81.17,6,.1.83.23,1.36,1.12,1.49a10.43,10.43,0,0,0,1.43.1.34.34,0,0,1,.36.3c0,.2-.23.3-.59.3-1.69,0-4.11-.1-4.54-.1s-2.42.1-3.58.1c-.36,0-.56-.1-.56-.3s.1-.3.46-.3a4.16,4.16,0,0,0,1-.1c.59-.13.76-.66.86-1.49.13-1.19.13-3.41.13-6Zm3.71,2.18c0,.3.07.4.27.5a8,8,0,0,0,2.22.26,3,3,0,0,0,2.05-.46,4.78,4.78,0,0,0,1.89-4.17c0-4-2.72-5-4.44-5a11.28,11.28,0,0,0-1.72.1.35.35,0,0,0-.27.4Z"/><path class="cls-1" d="M298.48,101.66c0-4.8,3.38-11,12.23-11,7.35,0,11.92,4.07,11.92,10.53s-4.7,11.53-12.22,11.53C301.93,112.69,298.48,106.66,298.48,101.66Zm19.81.53c0-6.23-3.74-10.07-8.45-10.07-3.24,0-7,1.72-7,8.68,0,5.8,3.31,10.37,8.81,10.37C313.65,111.17,318.29,110.21,318.29,102.19Z"/><path class="cls-1" d="M328.07,99.18c0-4.28,0-5.07,0-6s-.33-1.26-1.26-1.52a5.13,5.13,0,0,0-1.16-.1c-.29,0-.49-.1-.49-.3s.23-.26.66-.26c1.52,0,3.64.06,4.41.06s2.55-.06,3.71-.06c.39,0,.59.06.59.26s-.16.3-.53.3a3.54,3.54,0,0,0-.83.1c-.79.13-1,.53-1.09,1.52s-.07,1.69-.07,6v5.23c0,1.19.1,2.55.1,4a14.47,14.47,0,0,1-.69,5c-.63,1.73-2.42,3.71-5.24,5.37-.36.2-.82.43-1.45.73a1.51,1.51,0,0,1-.6.13.25.25,0,0,1-.23-.26c0-.14.13-.27.63-.5a5.73,5.73,0,0,0,1.39-1.09c2.22-2.16,2.19-4.94,2.19-10.47Z"/><path class="cls-1" d="M341.68,105.24c-.17,0-.2,0-.27.2l-1.55,3.77a5.06,5.06,0,0,0-.43,1.73c0,.49.26.79,1.16.79H341c.36,0,.43.13.43.3s-.17.3-.47.3c-1,0-2.31-.1-3.24-.1-.3,0-1.86.1-3.38.1-.37,0-.53-.07-.53-.3a.29.29,0,0,1,.33-.3l.86,0c1.33-.2,1.82-1.06,2.42-2.49l7.62-17.72c.33-.8.56-1.13.86-1.13s.56.27.86.9c.7,1.56,5.57,13.08,7.42,17.36,1.13,2.55,2,2.91,2.49,3a6.57,6.57,0,0,0,1.09.1c.26,0,.4.1.4.3s-.17.3-1.26.3-3.15,0-5.6-.07c-.53,0-.86,0-.86-.23s.06-.27.36-.3a.44.44,0,0,0,.27-.63l-2.26-5.66a.26.26,0,0,0-.29-.2Zm6.23-1.56c.13,0,.16-.07.13-.16l-2.75-7.16c0-.1-.07-.27-.13-.27s-.13.17-.17.27l-2.81,7.12c-.07.13,0,.2.1.2Z"/><path class="cls-2" d="M55.6,79.46a49,49,0,0,1,3.31-5.32L62,70c1.4-2,3.1-3.76,4.64-5.64.45-.56.94-1,1.38-1.53.88-1.07,1.8-2,2.73-3.1L75,55.11c.28-.28.39-.46.66-.78l31-30.75c2.68-2.7,5.57-5.27,8.38-7.84.42-.38,1-1.09,1.78-1.06a1.65,1.65,0,0,1,1.51,1.4c0,1.06-1,3.21-1.34,4l-9.68,24.64c-.55,1.39-1.05,2.68-1.61,4.08-.43,1.1-1.35,3.14-1.6,4.16a22.72,22.72,0,0,0,2.46-2.14c.78-.68,1.67-1.5,2.49-2.14,2.48-1.94,7.07-6.34,9.92-8.6l7.48-6.41c2.44-2.16,5.07-4.24,7.57-6.34L144.19,19c3.38-2.76,6.84-5.43,10.49-8.09,1.68-1.23,6-4.61,8.52-4.91a2.71,2.71,0,0,1,.49,0,2.06,2.06,0,0,1,1.91,2.1c0,2-3.85,6.74-5.19,8.59a175.69,175.69,0,0,0-15.19,25.62,95.77,95.77,0,0,0-5.16,12.78,34.62,34.62,0,0,0-1.61,8.48,3.79,3.79,0,0,0,.63,2.5c.38.4.65.19,1.1.9a1.43,1.43,0,0,1,.21.74,1.18,1.18,0,0,1-1,1.22,2.91,2.91,0,0,1-2.14-1c-1.26-1.14-1.68-3-1.68-5a24.41,24.41,0,0,1,.77-5.51C138.46,48.36,143,39.56,147,32.21c1.71-3.12,3.54-6.24,5.5-9.21l5-7.52c1.11-1.66,2.4-3.28,3.54-4.91.05-.07.09-.14.14-.2v-.26s-2.79,1.88-3.1,2.09c-5.08,3.52-9.92,7.47-14.71,11.36-2,1.61-3.78,3.11-5.7,4.7-5.22,4.32-10.43,8.64-15.49,13.1-3.23,2.86-6.57,5.58-9.8,8.49l-11.09,9.7a1.5,1.5,0,0,1-.7.28,1.63,1.63,0,0,1-1.77-1.58c0-1.1,2.28-6,2.83-7.47l8.5-21.68c.9-2.25,1.87-5.1,2.83-7.23-.78.45-17.22,16.26-18.34,17.47S92,41.83,90.82,43.15c-.39.43-.63.58-1,1-1.35,1.41-3.53,3.46-4.68,4.75-.93,1-1.92,1.85-2.81,2.92-.29.34-.57.57-.9.9l-2.78,2.94c-2.51,2.53-4.86,5.27-7.22,7.91-1,1.15-3.48,3.89-4.36,5a12.07,12.07,0,0,1-.86,1C65,70.92,62.46,74.46,61.32,76c-1.85,2.57-3.76,5.51-4.39,8.61-.17.78-.28.64-.79,1.07l-.67.08a3.61,3.61,0,0,1-.88-.49,3.31,3.31,0,0,1-.59-.8V83.6A33.14,33.14,0,0,1,55.6,79.46Z"/><path class="cls-3" d="M173.54,68.19a1.5,1.5,0,0,1-.7-2c.47-.83,2.24-.87,3.3-1.15,9.07-2.43,22.43-8.86,30.64-13.63C209.31,50,216,45.68,216,43.37c-2.39-1.77-10.1-1.19-13.91-.86a18.52,18.52,0,0,1-3.78.2,1.9,1.9,0,0,1-1.26-1.63,1.4,1.4,0,0,1,.35-.91c1.12-1.41,10.78-7.24,13.32-8.9.91-.6,1.8-1.2,2.73-1.75,2.82-1.68,7.88-5.15,10.76-7.08,5.32-3.58,17-12,18.66-16.57a2.64,2.64,0,0,0,.2-.92c0-.79-.61-1.07-1.43-1.33A16,16,0,0,0,238.45,3a56.44,56.44,0,0,0-11.64.4c-1.29.16-2.55.33-3.71.52-.64.1-5.49.79-5.85,1.13L203.88,28.38c-2.11,3.65-4.12,7.3-6.19,11l-4.51,8.41c-.43.83-.69,2-1.64,2.11a1.7,1.7,0,0,1-.61-.06,1.33,1.33,0,0,1-1.15-1.36c0-1.21,1.1-2.9,1.66-4,2.31-4.59,6.65-12.14,9.22-16.65l9.42-16.47c.54-1,2.93-4.94,3.15-5.53-4.41.84-9.31,2.24-13.65,3.48s-8.7,2.65-13,4.1a135.23,135.23,0,0,0-18,7.45c-1.45.76-4.39,2.43-5,3.42.29.38,1.09,1.13.44,2.06a1.14,1.14,0,0,1-.84.48,2.71,2.71,0,0,1-2.75-2.61,2.92,2.92,0,0,1,.53-1.61c2.87-4.41,21.27-10.86,26.28-12.57a238,238,0,0,1,27-7.44c1-.21.77-.07,1.19-.42,1-.84,1.22-.07,2.36-.29,2.63-.51,5.34-.95,8-1.27,1.24-.15,2.47-.28,3.7-.38,5.65-.47,16.45-.87,16.45,5,0,3.66-4.65,7.76-7.31,10.06L234.23,19c-3.41,2.67-11.39,8.22-15.12,10.53-2.57,1.59-5.19,3.44-7.81,5l-7.78,5c3.19.11,5.16-.47,9.31.06,2.33.3,5.59,1.06,6.07,3.73a2.81,2.81,0,0,1,0,.5c0,4.08-8.28,8.84-11.24,10.64-7.09,4.31-21.28,10.81-29.79,13.23a21.17,21.17,0,0,0-2.38.67l-1.35.16Z"/><path class="cls-4" d="M230.4,34.38a20.89,20.89,0,0,1,3.15-1,2,2,0,0,1,1,.1,1.77,1.77,0,0,1,1.18,1.74,3.45,3.45,0,0,1-.39,1.5c-.37.74-1.71,2.93-1.84,3.46,1.94-.44,6-2.57,7.88-3.61.67-.36,1.23-.8,2-.51a1.62,1.62,0,0,1,1.11,1.39c.06.92-.52,1.16-1.22,1.54-2.39,1.3-7.12,3.87-9.75,4.19l-.32,0a3.16,3.16,0,0,1-2-.46,2.21,2.21,0,0,1-1-1.92,8.37,8.37,0,0,1,1.3-3.63c-.74.09-3.23,1.26-5.34,1.51a3.94,3.94,0,0,1-2.15-.22,1.91,1.91,0,0,1-1.12-1.74A1.61,1.61,0,0,1,224.23,35a1.37,1.37,0,0,1,.45,0c.8.16,1,.68,1.22.81A26.55,26.55,0,0,0,230.4,34.38Z"/><path class="cls-5" d="M262.73,36.73c-3.18.67-5.8,1.35-9,1.77a2.89,2.89,0,0,1,.18,1c0,1.22-.94,1.94-2.16,2.5a15.34,15.34,0,0,1-4.47,1.19,10.79,10.79,0,0,1-5.32-.45,3,3,0,0,1-2-2.69,3.17,3.17,0,0,1,.08-.72,4.69,4.69,0,0,1,1-1.93,12.11,12.11,0,0,1,3.24-2.81,2.63,2.63,0,0,1,2.17-.6,1.68,1.68,0,0,1,1.13,1.61c-.08,1.21-1.39,1-3.32,2.84a5.24,5.24,0,0,0-1.32,1.72,9.29,9.29,0,0,0,3.82.15,9.13,9.13,0,0,0,3.53-1c-.57-.38-1.4-.15-2.07-.77a1.4,1.4,0,0,1,0-2.14,8.62,8.62,0,0,1,2.64-.55c1.36-.17,2.83-.29,3.43-.36,2.52-.3,5-1.06,7.54-1.58,1.12-.23,1.79-.59,2.6.08.42.35.33.43.63.89v.67C264.33,36.53,264.42,36.37,262.73,36.73Z"/><path class="cls-6" d="M235.1,82.81a7,7,0,0,1-1.24-4.42c0-4.62,2.46-10.6,3.93-13.74l2.26-4.55,1.9-3.29c.79-1.23,1.88-3,2.77-4.1a19.05,19.05,0,0,1,4.37-4.41,4.53,4.53,0,0,1,1.83-.72,1.65,1.65,0,0,1,2,1.57,1.2,1.2,0,0,1-.84,1.19,3.81,3.81,0,0,0-2.32,1.27c-4.38,4-9,13.23-10.92,18.33a40.94,40.94,0,0,0-1.6,5.14,20.56,20.56,0,0,0-.51,4,3,3,0,0,0,.37,1.76c1.89-1.05,5.29-6.43,6.61-8.64,3.28-5.54,5.94-10.52,8.82-16.32,3.37-6.78,6.55-13.44,9.73-20.35.52-1.16,1.05-2.29,1.55-3.45.27-.64.55-1.15,1.47-1.08a1.78,1.78,0,0,1,1.33.91,2.07,2.07,0,0,1-.24,1.94c-.27.58-.51,1.16-.78,1.72-.55,1.12-1.07,2.3-1.57,3.44-.87,2-2.22,4.78-3.19,6.83l-8.3,16.78c-.58,1.11-1.14,2.21-1.74,3.28-1.21,2.21-2.38,4.33-3.61,6.46a64.83,64.83,0,0,1-5.55,8.33,9.35,9.35,0,0,1-3.38,3l0,0-.1.06-1.15.14A3.13,3.13,0,0,1,235.1,82.81Zm40.26-68.92c1.65-.2,2.51.79,2.51,1.68a1.18,1.18,0,0,1-.75,1.13c-.68.28-.89-.17-1.9.31a12.67,12.67,0,0,0-2.8,2.08,22.67,22.67,0,0,0-2.33,2.43,1.45,1.45,0,0,1-.92.49,1.68,1.68,0,0,1-1.75-1.2c-.21-.82.24-1.18.6-1.59,1.69-1.88,4.38-4.68,6.9-5.25A3.73,3.73,0,0,1,275.36,13.89Z"/><path class="cls-7" d="M285.85,28.7a1.51,1.51,0,0,1,1.46.47c.74.95-.22,1.76-.22,2.53a6.14,6.14,0,0,0,3.18.21,47,47,0,0,0,10-2.81,1.63,1.63,0,0,1,1.95.85,1.27,1.27,0,0,1-.63,1.82,47.69,47.69,0,0,1-10.48,2.86,9.29,9.29,0,0,1-5-.41,3.45,3.45,0,0,1-1.92-2c-2.86,1.24-7.37,3-10.18,3.38-1.52.18-2.53-.06-2.53-1a2.83,2.83,0,0,1,.32-1.16c.95-2,4.67-3.3,6.79-3.89a9.52,9.52,0,0,1,1.41-.3c1-.12,1.94,0,1.73,1.26C282.73,30.05,284.48,28.86,285.85,28.7Z"/><path class="cls-8" d="M164.33,44.82A2.19,2.19,0,0,1,166,44a2.3,2.3,0,0,1,2.19,2,1.67,1.67,0,0,1-.74,1.6,2.83,2.83,0,0,1-1.55.83,2.32,2.32,0,0,1-2.37-2.11A1.75,1.75,0,0,1,164.33,44.82Z"/></g></g></svg>