<svg xmlns="http://www.w3.org/2000/svg" viewBox="0 0 512 512">
  <rect width="512" height="512" rx="96" fill="#1D1D1F"/>
  <svg x="36" y="100" width="440" height="312" viewBox="50 0 260 90" xmlns="http://www.w3.org/2000/svg">
    <defs>
      <linearGradient id="g" x1="309" y1="11" x2="28" y2="60" gradientUnits="userSpaceOnUse">
        <stop offset="0" stop-color="#d4a56f"/>
        <stop offset="1" stop-color="#c29464"/>
      </linearGradient>
    </defs>
    <path fill="url(#g)" d="M55.6,79.46a49,49,0,0,1,3.31-5.32L62,70c1.4-2,3.1-3.76,4.64-5.64.45-.56.94-1,1.38-1.53.88-1.07,1.8-2,2.73-3.1L75,55.11c.28-.28.39-.46.66-.78l31-30.75c2.68-2.7,5.57-5.27,8.38-7.84.42-.38,1-1.09,1.78-1.06a1.65,1.65,0,0,1,1.51,1.4c0,1.06-1,3.21-1.34,4l-9.68,24.64c-.55,1.39-1.05,2.68-1.61,4.08-.43,1.1-1.35,3.14-1.6,4.16a22.72,22.72,0,0,0,2.46-2.14c.78-.68,1.67-1.5,2.49-2.14,2.48-1.94,7.07-6.34,9.92-8.6l7.48-6.41c2.44-2.16,5.07-4.24,7.57-6.34L144.19,19c3.38-2.76,6.84-5.43,10.49-8.09,1.68-1.23,6-4.61,8.52-4.91a2.71,2.71,0,0,1,.49,0,2.06,2.06,0,0,1,1.91,2.1c0,2-3.85,6.74-5.19,8.59a175.69,175.69,0,0,0-15.19,25.62,95.77,95.77,0,0,0-5.16,12.78,34.62,34.62,0,0,0-1.61,8.48,3.79,3.79,0,0,0,.63,2.5c.38.4.65.19,1.1.9a1.43,1.43,0,0,1,.21.74,1.18,1.18,0,0,1-1,1.22,2.91,2.91,0,0,1-2.14-1c-1.26-1.14-1.68-3-1.68-5a24.41,24.41,0,0,1,.77-5.51C138.46,48.36,143,39.56,147,32.21c1.71-3.12,3.54-6.24,5.5-9.21l5-7.52c1.11-1.66,2.4-3.28,3.54-4.91.05-.07.09-.14.14-.2v-.26s-2.79,1.88-3.1,2.09c-5.08,3.52-9.92,7.47-14.71,11.36-2,1.61-3.78,3.11-5.7,4.7-5.22,4.32-10.43,8.64-15.49,13.1-3.23,2.86-6.57,5.58-9.8,8.49l-11.09,9.7a1.5,1.5,0,0,1-.7.28,1.63,1.63,0,0,1-1.77-1.58c0-1.1,2.28-6,2.83-7.47l8.5-21.68c.9-2.25,1.87-5.1,2.83-7.23-.78.45-17.22,16.26-18.34,17.47S92,41.83,90.82,43.15c-.39.43-.63.58-1,1-1.35,1.41-3.53,3.46-4.68,4.75-.93,1-1.92,1.85-2.81,2.92-.29.34-.57.57-.9.9l-2.78,2.94c-2.51,2.53-4.86,5.27-7.22,7.91-1,1.15-3.48,3.89-4.36,5a12.07,12.07,0,0,1-.86,1C65,70.92,62.46,74.46,61.32,76c-1.85,2.57-3.76,5.51-4.39,8.61-.17.78-.28.64-.79,1.07l-.67.08a3.61,3.61,0,0,1-.88-.49,3.31,3.31,0,0,1-.59-.8V83.6A33.14,33.14,0,0,1,55.6,79.46Z"/>
    <path fill="url(#g)" d="M164.33,44.82A2.19,2.19,0,0,1,166,44a2.3,2.3,0,0,1,2.19,2,1.67,1.67,0,0,1-.74,1.6,2.83,2.83,0,0,1-1.55.83,2.32,2.32,0,0,1-2.37-2.11A1.75,1.75,0,0,1,164.33,44.82Z"/>
    <path fill="url(#g)" d="M173.54,68.19a1.5,1.5,0,0,1-.7-2c.47-.83,2.24-.87,3.3-1.15,9.07-2.43,22.43-8.86,30.64-13.63C209.31,50,216,45.68,216,43.37c-2.39-1.77-10.1-1.19-13.91-.86a18.52,18.52,0,0,1-3.78.2,1.9,1.9,0,0,1-1.26-1.63,1.4,1.4,0,0,1,.35-.91c1.12-1.41,10.78-7.24,13.32-8.9.91-.6,1.8-1.2,2.73-1.75,2.82-1.68,7.88-5.15,10.76-7.08,5.32-3.58,17-12,18.66-16.57a2.64,2.64,0,0,0,.2-.92c0-.79-.61-1.07-1.43-1.33A16,16,0,0,0,238.45,3a56.44,56.44,0,0,0-11.64.4c-1.29.16-2.55.33-3.71.52-.64.1-5.49.79-5.85,1.13L203.88,28.38c-2.11,3.65-4.12,7.3-6.19,11l-4.51,8.41c-.43.83-.69,2-1.64,2.11a1.7,1.7,0,0,1-.61-.06,1.33,1.33,0,0,1-1.15-1.36c0-1.21,1.1-2.9,1.66-4,2.31-4.59,6.65-12.14,9.22-16.65l9.42-16.47c.54-1,2.93-4.94,3.15-5.53-4.41.84-9.31,2.24-13.65,3.48s-8.7,2.65-13,4.1a135.23,135.23,0,0,0-18,7.45c-1.45.76-4.39,2.43-5,3.42.29.38,1.09,1.13.44,2.06a1.14,1.14,0,0,1-.84.48,2.71,2.71,0,0,1-2.75-2.61,2.92,2.92,0,0,1,.53-1.61c2.87-4.41,21.27-10.86,26.28-12.57a238,238,0,0,1,27-7.44c1-.21.77-.07,1.19-.42,1-.84,1.22-.07,2.36-.29,2.63-.51,5.34-.95,8-1.27,1.24-.15,2.47-.28,3.7-.38,5.65-.47,16.45-.87,16.45,5,0,3.66-4.65,7.76-7.31,10.06L234.23,19c-3.41,2.67-11.39,8.22-15.12,10.53-2.57,1.59-5.19,3.44-7.81,5l-7.78,5c3.19.11,5.16-.47,9.31.06,2.33.3,5.59,1.06,6.07,3.73a2.81,2.81,0,0,1,0,.5c0,4.08-8.28,8.84-11.24,10.64-7.09,4.31-21.28,10.81-29.79,13.23a21.17,21.17,0,0,0-2.38.67l-1.35.16Z"/>
    <path fill="url(#g)" d="M230.4,34.38a20.89,20.89,0,0,1,3.15-1,2,2,0,0,1,1,.1,1.77,1.77,0,0,1,1.18,1.74,3.45,3.45,0,0,1-.39,1.5c-.37.74-1.71,2.93-1.84,3.46,1.94-.44,6-2.57,7.88-3.61.67-.36,1.23-.8,2-.51a1.62,1.62,0,0,1,1.11,1.39c.06.92-.52,1.16-1.22,1.54-2.39,1.3-7.12,3.87-9.75,4.19l-.32,0a3.16,3.16,0,0,1-2-.46,2.21,2.21,0,0,1-1-1.92,8.37,8.37,0,0,1,1.3-3.63c-.74.09-3.23,1.26-5.34,1.51a3.94,3.94,0,0,1-2.15-.22,1.91,1.91,0,0,1-1.12-1.74A1.61,1.61,0,0,1,224.23,35a1.37,1.37,0,0,1,.45,0c.8.16,1,.68,1.22.81A26.55,26.55,0,0,0,230.4,34.38Z"/>
    <path fill="url(#g)" d="M262.73,36.73c-3.18.67-5.8,1.35-9,1.77a2.89,2.89,0,0,1,.18,1c0,1.22-.94,1.94-2.16,2.5a15.34,15.34,0,0,1-4.47,1.19,10.79,10.79,0,0,1-5.32-.45,3,3,0,0,1-2-2.69,3.17,3.17,0,0,1,.08-.72,4.69,4.69,0,0,1,1-1.93,12.11,12.11,0,0,1,3.24-2.81,2.63,2.63,0,0,1,2.17-.6,1.68,1.68,0,0,1,1.13,1.61c-.08,1.21-1.39,1-3.32,2.84a5.24,5.24,0,0,0-1.32,1.72,9.29,9.29,0,0,0,3.82.15,9.13,9.13,0,0,0,3.53-1c-.57-.38-1.4-.15-2.07-.77a1.4,1.4,0,0,1,0-2.14,8.62,8.62,0,0,1,2.64-.55c1.36-.17,2.83-.29,3.43-.36,2.52-.3,5-1.06,7.54-1.58,1.12-.23,1.79-.59,2.6.08.42.35.33.43.63.89v.67C264.33,36.53,264.42,36.37,262.73,36.73Z"/>
    <path fill="url(#g)" d="M235.1,82.81a7,7,0,0,1-1.24-4.42c0-4.62,2.46-10.6,3.93-13.74l2.26-4.55,1.9-3.29c.79-1.23,1.88-3,2.77-4.1a19.05,19.05,0,0,1,4.37-4.41,4.53,4.53,0,0,1,1.83-.72,1.65,1.65,0,0,1,2,1.57,1.2,1.2,0,0,1-.84,1.19,3.81,3.81,0,0,0-2.32,1.27c-4.38,4-9,13.23-10.92,18.33a40.94,40.94,0,0,0-1.6,5.14,20.56,20.56,0,0,0-.51,4,3,3,0,0,0,.37,1.76c1.89-1.05,5.29-6.43,6.61-8.64,3.28-5.54,5.94-10.52,8.82-16.32,3.37-6.78,6.55-13.44,9.73-20.35.52-1.16,1.05-2.29,1.55-3.45.27-.64.55-1.15,1.47-1.08a1.78,1.78,0,0,1,1.33.91,2.07,2.07,0,0,1-.24,1.94c-.27.58-.51,1.16-.78,1.72-.55,1.12-1.07,2.3-1.57,3.44-.87,2-2.22,4.78-3.19,6.83l-8.3,16.78c-.58,1.11-1.14,2.21-1.74,3.28-1.21,2.21-2.38,4.33-3.61,6.46a64.83,64.83,0,0,1-5.55,8.33,9.35,9.35,0,0,1-3.38,3l0,0-.1.06-1.15.14A3.13,3.13,0,0,1,235.1,82.81Zm40.26-68.92c1.65-.2,2.51.79,2.51,1.68a1.18,1.18,0,0,1-.75,1.13c-.68.28-.89-.17-1.9.31a12.67,12.67,0,0,0-2.8,2.08,22.67,22.67,0,0,0-2.33,2.43,1.45,1.45,0,0,1-.92.49,1.68,1.68,0,0,1-1.75-1.2c-.21-.82.24-1.18.6-1.59,1.69-1.88,4.38-4.68,6.9-5.25A3.73,3.73,0,0,1,275.36,13.89Z"/>
    <path fill="url(#g)" d="M285.85,28.7a1.51,1.51,0,0,1,1.46.47c.74.95-.22,1.76-.22,2.53a6.14,6.14,0,0,0,3.18.21,47,47,0,0,0,10-2.81,1.63,1.63,0,0,1,1.95.85,1.27,1.27,0,0,1-.63,1.82,47.69,47.69,0,0,1-10.48,2.86,9.29,9.29,0,0,1-5-.41,3.45,3.45,0,0,1-1.92-2c-2.86,1.24-7.37,3-10.18,3.38-1.52.18-2.53-.06-2.53-1a2.83,2.83,0,0,1,.32-1.16c.95-2,4.67-3.3,6.79-3.89a9.52,9.52,0,0,1,1.41-.3c1-.12,1.94,0,1.73,1.26C282.73,30.05,284.48,28.86,285.85,28.7Z"/>
  </svg>
</svg>
